<svg xmlns="http://www.w3.org/2000/svg" viewBox="0 0 64 64"><g id="Layer_19" data-name="Layer 19"><path d="M56.56,28.63c.09,0,0-2.92,0-3a1,1,0,0,0-1-1H53V10.46C53,3.11,43.34.27,39.35,6.31L24.5,12.93V11.19h.75a1,1,0,0,0,1-1V6.71a1,1,0,0,0-1-1H14.17a1,1,0,0,0-1,1v3.48a1,1,0,0,0,1,1h.75v10h-.75a1,1,0,0,0-1,1v2.48H11.33v-4a3.7,3.7,0,1,0-2,0v4H8.48a1,1,0,0,0-1,1v2.77a1,1,0,0,0,0,.17C2.14,31.78,3,36.6,3,42a8.92,8.92,0,0,0,8.91,8.91h5l-2.17,1.85c-2.85-2.26-7.48,0-7.36,3.66a4.6,4.6,0,1,0,8.67-2.15L20,50.92H44l3.94,3.36a4.6,4.6,0,1,0,8.68,2.15c.11-3.66-4.52-5.92-7.37-3.66l-2.17-1.85h5A8.92,8.92,0,0,0,61,42V36.33A8.92,8.92,0,0,0,56.56,28.63ZM8.63,17.13a1.71,1.71,0,1,1,1.72,1.7h0A1.7,1.7,0,0,1,8.63,17.13Zm6,39.3a2.63,2.63,0,1,1-1.48-2.3l-1.8,1.54a1,1,0,1,0,1.3,1.52l1.83-1.56A2.37,2.37,0,0,1,14.63,56.43ZM52,53.86a2.57,2.57,0,1,1-2.48,1.77l1.83,1.56a1,1,0,1,0,1.3-1.52l-1.8-1.54A2.78,2.78,0,0,1,52,53.86ZM43.3,24.65,46,20.83h5v3.82Zm-14.84,0L44,17.74c.16,0,.33.06.5.09v1.69l-3.59,5.13Zm-11.54-9.4H22.5V17H16.92ZM51,18.83H46.45v-1A7.45,7.45,0,0,0,51,15.52ZM45.54,5c7.21.23,7.21,10.69,0,10.92C38.33,15.69,38.33,5.23,45.54,5ZM41.43,16.67,26.25,23.44V22.17a1,1,0,0,0-1-1H24.5V15.12L38.23,9A7.47,7.47,0,0,0,41.43,16.67Zm-26.26-9h9.08V9.19H15.17Zm7.33,3.48v2.06H16.92V11.19ZM16.92,19H22.5v2.13H16.92Zm-1.75,4.13h9.08v1.48H15.17ZM9.48,27.42v-.77H54.61v.77ZM59,42a6.92,6.92,0,0,1-6.91,6.91H11.91A6.92,6.92,0,0,1,5,42V36.33a6.92,6.92,0,0,1,6.91-6.91H52.09A6.92,6.92,0,0,1,59,36.33Z"/><path d="M21.78,32.79H16.11a1,1,0,0,0,0,2h5.67A1,1,0,0,0,21.78,32.79Z"/><path d="M47.89,32.79H42.22a1,1,0,0,0,0,2h5.67A1,1,0,0,0,47.89,32.79Z"/></g></svg>