<?xml version="1.0" ?><svg enable-background="new 0 0 100 100" id="Layer_1" version="1.1" viewBox="0 0 100 100" xml:space="preserve" xmlns="http://www.w3.org/2000/svg" xmlns:xlink="http://www.w3.org/1999/xlink"><path d="M44.3,31.5c3.6-13.1,2.6-16.9,8-20c0,0-18.8,0.5-24.9,11.5c-5.3,9.7-0.1,11.9,0.8,15.3  c-0.9,1.9-2.7,6.1-2,8.7l2.1,0.3c0,0,0.5-5.3,2-7.6c0.5-0.1,1-0.1,1.6,0.1C31.9,39.9,41.4,42.2,44.3,31.5z M45.8,14.6  c-0.7,0.4-1.4,0.9-2.1,1.4c-0.7,0.6-1.5,1.1-2.2,1.8c-0.4,0.3-0.8,0.7-1.1,1c-0.4,0.4-0.7,0.7-1.1,1.1c-0.8,0.7-1.4,1.6-2.1,2.3  c-0.7,0.8-1.3,1.7-2,2.5c-0.6,0.9-1.2,1.8-1.7,2.6c-0.5,0.9-1,1.8-1.4,2.6c-0.5,0.8-0.8,1.7-1.1,2.4c-0.3,0.8-0.7,1.4-0.9,2.1  c-0.2,0.6-0.5,1.2-0.6,1.6c-0.4,0.9-0.6,1.4-0.6,1.4s0.1-0.6,0.3-1.5c0.1-0.5,0.2-1.1,0.4-1.7c0.1-0.7,0.4-1.4,0.7-2.2  c0.3-0.8,0.5-1.7,0.9-2.6c0.4-0.9,0.8-1.8,1.3-2.8c0.5-0.9,1.1-1.9,1.7-2.8c0.7-0.9,1.3-1.8,2-2.7c0.8-0.8,1.5-1.7,2.3-2.4  c0.4-0.4,0.8-0.7,1.2-1.1c0.4-0.3,0.8-0.7,1.2-1c0.8-0.7,1.7-1.1,2.4-1.7c0.8-0.5,1.6-0.9,2.3-1.2c1.5-0.7,2.8-1.1,3.6-1.3  c0.9-0.2,1.4-0.3,1.4-0.3s-0.5,0.2-1.3,0.6C48.4,13.1,47.2,13.7,45.8,14.6z" fill="#231F20"/><path d="M55.1,56.9h-0.9H20.5h-0.9  C26.3,87.8,7.8,98.1,7.8,98.1h59C66.9,98.1,48.4,87.8,55.1,56.9z" fill="#231F20" stroke="#000000" stroke-miterlimit="10" stroke-width="1.5518"/><path d="M77.8,73.2l-0.6,0l-21-0.2l-0.6,0c4.1,19.3-7.6,25.7-7.6,25.7L85.1,99C85.1,99,73.5,92.5,77.8,73.2z" fill="#231F20"/><path d="M93.8,80.5l-0.4,0l-15.1-0.1l-0.4,0c2.9,13.9-5.4,18.4-5.4,18.4L99,99C99,99,90.7,94.3,93.8,80.5z" fill="#231F20"/><g><path d="M50.2,55.5c-2.8,0-5.3-1.7-6.6-4.3c-0.7,0.5-1.5,0.9-2.3,0.9c-1.7,0.1-3.2-0.8-4-2.4   c-0.5,0.2-1,0.3-1.5,0.4c-0.3,0-0.6,0-0.9,0c-0.7,3-3.1,5.1-6,5.3c-2.5,0.2-4.8-1.2-6-3.4c-0.9,0.7-2,1.2-3.1,1.3   c-2.4,0.2-4.6-1.3-5.6-3.6c-0.4,0.1-0.7,0.1-1.1,0.1C6.9,50.3,1.4,45,1,38.1c-0.3-5.5,2.8-10.6,7.4-12.5c-0.1-0.5-0.2-1.1-0.3-1.6   c-0.2-3.2,1.5-6.2,4.2-7.5c-0.2-0.7-0.3-1.4-0.4-2.2c-0.1-2.6,0.6-5.1,2.2-7c1.6-1.9,3.8-3.1,6.2-3.3c1.5-0.1,2.9,0.2,4.2,0.8   c1.1-2.2,3.2-3.7,5.6-3.8c2.6-0.2,5,1.3,6.3,3.6c0.8-0.5,1.7-0.8,2.6-0.9c1-0.1,2,0.2,2.9,0.6c1.4-1.9,3.4-3,5.6-3.1   c4.3-0.3,8,3.2,8.4,7.7c2.1,0.3,3.8,2.2,4,4.6c0.1,0.9-0.1,1.8-0.5,2.7c0.1,0.2,0.2,0.4,0.3,0.6c0.5-0.2,1.1-0.3,1.6-0.3   c4.1-0.3,7.7,3.2,7.9,7.6c0.1,1.5-0.2,3-0.8,4.3c2,1.4,3.3,3.8,3.5,6.5c0.2,3.6-1.7,6.8-4.6,8.1c0.1,0.5,0.2,1.1,0.2,1.6   c0.1,2.3-0.6,4.5-2,6.3s-3.4,2.8-5.5,2.9c-1.4,0.1-2.9-0.2-4.1-1c-1.3,1.6-3.1,2.6-5.1,2.8C50.5,55.5,50.4,55.5,50.2,55.5z    M44.3,47.1l0.6,2.1c0.7,2.7,3.1,4.6,5.8,4.4c1.7-0.1,3.3-1.1,4.3-2.6l0.5-0.8l0.7,0.5c1.1,0.8,2.4,1.2,3.8,1.1   c1.7-0.1,3.2-0.9,4.3-2.3c1.1-1.4,1.6-3.1,1.5-4.9c0-0.7-0.2-1.3-0.4-2l-0.3-1l0.9-0.3c2.6-0.9,4.4-3.5,4.2-6.5   c-0.1-2.3-1.4-4.4-3.3-5.4L65.8,29l0.6-0.9c0.8-1.2,1.1-2.5,1-4c-0.2-3.4-2.9-6-6.1-5.8c-0.7,0-1.3,0.2-1.9,0.5l-1.1,0.5l-0.1-1.3   c0-0.4-0.2-0.8-0.5-1.1L57,16.4l0.5-0.7c0.4-0.6,0.6-1.3,0.6-2c-0.1-1.6-1.3-2.8-2.7-2.8l-1.1,0.1l-0.1-1c0-0.2,0-0.3,0-0.4   c-0.2-3.7-3.1-6.5-6.5-6.3c-1.9,0.1-3.7,1.2-4.8,3L42.4,7l-0.7-0.6c-0.7-0.6-1.6-0.8-2.5-0.8c-0.9,0.1-1.8,0.5-2.5,1.1l-1,1   l-0.5-1.3c-0.8-2.2-2.8-3.6-5-3.5c-2,0.1-3.7,1.5-4.4,3.6l-0.4,1.1L24.5,7c-1.2-0.8-2.6-1.1-4.1-1c-1.9,0.1-3.7,1.1-4.9,2.6   s-1.9,3.6-1.8,5.6c0.1,0.9,0.2,1.7,0.5,2.5l0.4,1L13.7,18c-2.4,0.8-3.9,3.2-3.8,5.9c0,0.7,0.2,1.3,0.4,1.9l0.4,1l-1,0.3   c-4.3,1.4-7.3,5.9-7,10.8c0.3,5.8,5,10.3,10.4,9.9c0.5,0,1-0.1,1.5-0.2l0.8-0.2l0.2,0.8c0.5,1.9,2.2,3.2,4.1,3   c1.1-0.1,2.1-0.6,2.8-1.6l1-1.3l0.5,1.5c0.7,2.1,2.7,3.5,4.8,3.4c2.4-0.2,4.3-2.1,4.5-4.7l0.1-1.2l1.1,0.4c0.3,0.1,0.6,0.2,1,0.2   l0.2,0c0.6,0,1.1-0.3,1.5-0.6l1.1-0.9l0.3,1.5c0.3,1.2,1.3,2.1,2.4,2.1l0.2,0c0.8-0.1,1.5-0.5,1.9-1.3L44.3,47.1z" fill="#231F20"/></g></svg>